# xmcd
#
# Track frame offsets:
#	150
#	20080
#	37345
#	51952
#	63952
#	76470
#	91725
#	103722
#	118372
#	136050
#	149752
#	164197
#	182087
#	197327
#	216575
#
# Disc length: 3093 seconds
#
# Revision: 0
# Processed by: cddbd v1.4PL0 Copyright (c) Steve Scherf et al.
# Submitted via: dBpowerAMP V4.0
#
DISCID=ea0c130f
DTITLE=Ramon Ayala - CASAS DE MADERA
DYEAR=1900
DGENRE=Other
TTITLE0=CASAS DE MADERA 
TTITLE1=AMOR DE LA JUVENTUD
TTITLE2=TU
TTITLE3=BENDITA POBREZA
TTITLE4=SOLO UNA PATADA
TTITLE5=PORDIOSERO DE AMOR
TTITLE6=Y TE SALIERON ALAS
TTITLE7=YA VOLVI PALOMA
TTITLE8=MANDAME A LA TUMBA
TTITLE9=SI YO ME HICIERA MILLONARIO
TTITLE10=BESANDO BORRACHOS
TTITLE11=AMOR SIN MEDIDA 
TTITLE12=PENSANDO EN TI
TTITLE13=LA CAPTURA DEL TEXAS
TTITLE14=NO CABE DUDA
EXTD=
EXTT0=
EXTT1=
EXTT2=
EXTT3=
EXTT4=
EXTT5=
EXTT6=
EXTT7=
EXTT8=
EXTT9=
EXTT10=
EXTT11=
EXTT12=
EXTT13=
EXTT14=
PLAYORDER=
